<?xml version="1.0" encoding="UTF-8"?><svg xmlns="http://www.w3.org/2000/svg" xmlns:xlink="http://www.w3.org/1999/xlink" width="1025.25" zoomAndPan="magnify" viewBox="0 0 1025.25 242.249991" height="242.249991" preserveAspectRatio="xMidYMid meet" version="1.0"><defs><filter x="0%" y="0%" width="100%" xmlns:xlink="http://www.w3.org/1999/xlink" xlink:type="simple" xlink:actuate="onLoad" height="100%" id="filter-remove-color" xlink:show="other"><feColorMatrix values="0 0 0 0 1 0 0 0 0 1 0 0 0 0 1 0 0 0 1 0" color-interpolation-filters="sRGB"/></filter><mask id="mask-0"><g filter="url(#filter-remove-color)"><rect x="-102.525" width="1230.3" fill="rgb(0%, 0%, 0%)" y="-24.224999" height="290.699989" fill-opacity="0.498"/></g></mask><clipPath id="clip-0"><path d="M 1 1.015625 L 283.507812 1.015625 L 283.507812 111.671875 L 1 111.671875 Z M 1 1.015625 " clip-rule="nonzero"/></clipPath><clipPath id="clip-1"><rect x="0" width="284" y="0" height="112"/></clipPath><mask id="mask-1"><g filter="url(#filter-remove-color)"><rect x="-102.525" width="1230.3" fill="rgb(0%, 0%, 0%)" y="-24.224999" height="290.699989" fill-opacity="0.498"/></g></mask><clipPath id="clip-2"><path d="M 32 45 L 101 45 L 101 151.386719 L 32 151.386719 Z M 32 45 " clip-rule="nonzero"/></clipPath><clipPath id="clip-3"><path d="M 51 1.101562 L 120 1.101562 L 120 108 L 51 108 Z M 51 1.101562 " clip-rule="nonzero"/></clipPath><clipPath id="clip-4"><rect x="0" width="152" y="0" height="153"/></clipPath><mask id="mask-2"><g filter="url(#filter-remove-color)"><rect x="-102.525" width="1230.3" fill="rgb(0%, 0%, 0%)" y="-24.224999" height="290.699989" fill-opacity="0.498"/></g></mask><clipPath id="clip-5"><path d="M 164 26 L 186.882812 26 L 186.882812 49 L 164 49 Z M 164 26 " clip-rule="nonzero"/></clipPath><clipPath id="clip-6"><path d="M 0.0195312 136 L 23 136 L 23 160 L 0.0195312 160 Z M 0.0195312 136 " clip-rule="nonzero"/></clipPath><clipPath id="clip-7"><path d="M 88 166 L 105 166 L 105 183.257812 L 88 183.257812 Z M 88 166 " clip-rule="nonzero"/></clipPath><clipPath id="clip-8"><rect x="0" width="187" y="0" height="184"/></clipPath><mask id="mask-3"><g filter="url(#filter-remove-color)"><rect x="-102.525" width="1230.3" fill="rgb(0%, 0%, 0%)" y="-24.224999" height="290.699989" fill-opacity="0.498"/></g></mask><clipPath id="clip-9"><path d="M 165 26 L 187.84375 26 L 187.84375 49 L 165 49 Z M 165 26 " clip-rule="nonzero"/></clipPath><clipPath id="clip-10"><path d="M 80 0.480469 L 107 0.480469 L 107 28 L 80 28 Z M 80 0.480469 " clip-rule="nonzero"/></clipPath><clipPath id="clip-11"><path d="M 89 166 L 106 166 L 106 183.183594 L 89 183.183594 Z M 89 166 " clip-rule="nonzero"/></clipPath><clipPath id="clip-12"><path d="M 12 0.480469 L 29 0.480469 L 29 18 L 12 18 Z M 12 0.480469 " clip-rule="nonzero"/></clipPath><clipPath id="clip-13"><rect x="0" width="188" y="0" height="184"/></clipPath><mask id="mask-4"><g filter="url(#filter-remove-color)"><rect x="-102.525" width="1230.3" fill="rgb(0%, 0%, 0%)" y="-24.224999" height="290.699989" fill-opacity="0.498"/></g></mask><clipPath id="clip-14"><path d="M 28 59 L 104 59 L 104 95.464844 L 28 95.464844 Z M 28 59 " clip-rule="nonzero"/></clipPath><clipPath id="clip-15"><path d="M 1.140625 25 L 74 25 L 74 60 L 1.140625 60 Z M 1.140625 25 " clip-rule="nonzero"/></clipPath><clipPath id="clip-16"><path d="M 66 1 L 133.875 1 L 133.875 52 L 66 52 Z M 66 1 " clip-rule="nonzero"/></clipPath><clipPath id="clip-17"><rect x="0" width="134" y="0" height="96"/></clipPath><mask id="mask-5"><g filter="url(#filter-remove-color)"><rect x="-102.525" width="1230.3" fill="rgb(0%, 0%, 0%)" y="-24.224999" height="290.699989" fill-opacity="0.498"/></g></mask><clipPath id="clip-18"><path d="M 28 59 L 104 59 L 104 95.457031 L 28 95.457031 Z M 28 59 " clip-rule="nonzero"/></clipPath><clipPath id="clip-19"><path d="M 65 1 L 133.457031 1 L 133.457031 52 L 65 52 Z M 65 1 " clip-rule="nonzero"/></clipPath><clipPath id="clip-20"><rect x="0" width="134" y="0" height="96"/></clipPath></defs><g mask="url(#mask-0)"><g transform="matrix(1, 0, 0, 1, 496, 125)"><g id="source-5" clip-path="url(#clip-1)"><g clip-path="url(#clip-0)"><path fill="rgb(100%, 100%, 100%)" d="M 39.476562 70.996094 C 39.117188 70.777344 30.644531 65.609375 22.039062 57.519531 C 16.917969 52.707031 12.820312 47.855469 9.851562 43.09375 C 5.984375 36.886719 4.011719 30.785156 3.988281 24.960938 C 3.949219 13.652344 13.929688 4.058594 25.789062 4.015625 L 25.859375 4.015625 C 29.507812 4.015625 33.230469 5.101562 36.625 7.15625 C 37.304688 7.566406 37.976562 8.019531 38.621094 8.5 C 40.121094 9.617188 42.207031 9.613281 43.699219 8.484375 C 44.347656 7.988281 45.027344 7.527344 45.714844 7.105469 C 49.109375 5.023438 52.839844 3.914062 56.496094 3.902344 L 56.582031 3.902344 C 62.328125 3.902344 67.785156 6.066406 71.949219 10.003906 C 76.0625 13.890625 78.433594 19.179688 78.453125 24.515625 C 78.472656 29.90625 76.707031 35.636719 73.203125 41.546875 C 70.8125 45.578125 67.574219 49.761719 63.570312 53.976562 C 62.652344 54.945312 61.675781 55.933594 60.671875 56.910156 C 52.164062 65.191406 43.738281 70.703125 43.382812 70.933594 L 41.941406 71.871094 C 41.640625 72.066406 41.253906 72.074219 40.949219 71.886719 Z M 281.824219 71.953125 L 105.867188 71.96875 L 101.316406 52.476562 C 101.160156 51.800781 100.558594 51.324219 99.863281 51.324219 C 99.863281 51.324219 99.859375 51.324219 99.855469 51.324219 C 99.160156 51.324219 98.558594 51.8125 98.40625 52.492188 L 95.207031 66.90625 L 91.316406 13.515625 C 91.257812 12.734375 90.605469 12.128906 89.824219 12.128906 C 89.820312 12.128906 89.820312 12.128906 89.816406 12.128906 C 89.035156 12.132812 88.386719 12.742188 88.332031 13.527344 L 82.546875 103.359375 L 78.867188 62.207031 C 78.804688 61.511719 78.269531 60.949219 77.574219 60.859375 C 76.878906 60.765625 76.21875 61.167969 75.976562 61.824219 L 72.28125 71.894531 L 47.066406 71.910156 C 50.214844 69.691406 56.433594 65.058594 62.683594 58.980469 C 63.714844 57.972656 64.714844 56.960938 65.664062 55.964844 C 69.8125 51.59375 73.183594 47.238281 75.683594 43.019531 C 79.457031 36.65625 81.359375 30.425781 81.335938 24.503906 C 81.3125 18.382812 78.613281 12.332031 73.929688 7.902344 C 69.226562 3.460938 63.070312 1.015625 56.582031 1.015625 L 56.488281 1.015625 C 52.300781 1.03125 48.050781 2.285156 44.207031 4.644531 C 43.441406 5.113281 42.683594 5.632812 41.957031 6.183594 C 41.484375 6.539062 40.820312 6.542969 40.34375 6.1875 C 39.625 5.648438 38.875 5.144531 38.117188 4.6875 C 34.273438 2.359375 30.03125 1.128906 25.855469 1.128906 L 25.777344 1.128906 C 12.355469 1.179688 1.058594 12.097656 1.105469 24.96875 C 1.128906 31.34375 3.25 37.953125 7.402344 44.621094 C 10.503906 49.59375 14.765625 54.640625 20.0625 59.621094 C 28.886719 67.914062 37.613281 73.242188 37.980469 73.460938 L 39.453125 74.355469 C 40.058594 74.722656 40.746094 74.902344 41.429688 74.90625 L 72.546875 74.882812 C 73.636719 74.878906 74.617188 74.195312 74.996094 73.171875 L 76.484375 69.109375 L 80.085938 109.347656 C 80.195312 110.589844 81.214844 111.585938 82.457031 111.667969 C 82.511719 111.671875 82.566406 111.671875 82.625 111.671875 C 83.242188 111.671875 83.832031 111.449219 84.300781 111.039062 C 84.8125 110.589844 85.117188 109.96875 85.160156 109.289062 L 89.917969 35.433594 L 92.535156 71.34375 C 92.613281 72.378906 93.375 73.257812 94.382812 73.480469 C 95.65625 73.761719 96.921875 72.957031 97.207031 71.683594 L 99.902344 59.546875 L 103.078125 73.164062 C 103.328125 74.222656 104.257812 74.957031 105.339844 74.957031 L 281.824219 74.941406 C 282.648438 74.941406 283.316406 74.273438 283.316406 73.445312 C 283.316406 72.621094 282.648438 71.953125 281.824219 71.953125 " fill-opacity="1" fill-rule="nonzero"/></g></g></g></g><g mask="url(#mask-1)"><g transform="matrix(1, 0, 0, 1, 5, 5)"><g id="source-8" clip-path="url(#clip-4)"><path fill="rgb(100%, 100%, 100%)" d="M 108.597656 50.179688 C 133.457031 50.96875 146.003906 40.480469 149.367188 37.117188 C 149.914062 36.570312 150.222656 36.207031 150.296875 36.121094 C 151.085938 35.167969 150.953125 33.75 150 32.957031 C 149.050781 32.164062 147.632812 32.289062 146.832031 33.238281 C 146.71875 33.378906 135.203125 46.632812 108.308594 45.667969 C 108.34375 46.230469 108.371094 46.800781 108.421875 47.386719 C 108.496094 48.328125 108.554688 49.261719 108.597656 50.179688 " fill-opacity="1" fill-rule="nonzero"/><g clip-path="url(#clip-2)"><path fill="rgb(100%, 100%, 100%)" d="M 100.378906 45.210938 C 72.734375 44.332031 60.316406 57.417969 58.824219 59.121094 C 57.039062 60.691406 42.6875 74.308594 45.15625 104.96875 C 47.53125 134.46875 33.085938 147 32.949219 147.121094 C 31.992188 147.910156 31.855469 149.332031 32.652344 150.296875 C 33.449219 151.25 34.863281 151.382812 35.824219 150.589844 C 36.492188 150.035156 52.226562 136.597656 49.648438 104.605469 C 47.269531 75.105469 61.714844 62.566406 61.863281 62.453125 L 62.019531 62.316406 L 62.15625 62.15625 C 62.273438 62.015625 73.621094 48.738281 100.675781 49.734375 C 100.640625 49.164062 100.605469 48.597656 100.5625 48.015625 C 100.480469 47.066406 100.425781 46.132812 100.378906 45.210938 " fill-opacity="1" fill-rule="nonzero"/></g><path fill="rgb(100%, 100%, 100%)" d="M 43.292969 102.296875 C 14.386719 101.378906 2.132812 115.726562 1.597656 116.363281 C 0.808594 117.320312 0.9375 118.734375 1.894531 119.527344 C 2.84375 120.324219 4.261719 120.203125 5.0625 119.246094 C 5.183594 119.109375 16.695312 105.851562 43.585938 106.816406 C 43.550781 106.253906 43.515625 105.6875 43.472656 105.105469 C 43.398438 104.148438 43.339844 103.21875 43.292969 102.296875 " fill-opacity="1" fill-rule="nonzero"/><g clip-path="url(#clip-3)"><path fill="rgb(100%, 100%, 100%)" d="M 116.066406 1.894531 C 115.402344 2.453125 99.667969 15.894531 102.246094 47.878906 C 104.621094 77.378906 90.171875 89.910156 90.03125 90.03125 L 89.871094 90.167969 L 89.742188 90.320312 C 89.628906 90.46875 78.121094 103.722656 51.21875 102.75 C 51.253906 103.320312 51.289062 103.886719 51.332031 104.46875 C 51.414062 105.417969 51.46875 106.351562 51.515625 107.273438 C 79.160156 108.15625 91.578125 95.066406 93.070312 93.363281 C 93.238281 93.21875 93.53125 92.957031 93.90625 92.574219 C 97.453125 89.023438 108.96875 75.234375 106.738281 47.515625 C 104.367188 18.089844 118.734375 5.546875 118.953125 5.359375 C 119.882812 4.566406 120.03125 3.144531 119.242188 2.191406 C 118.445312 1.234375 117.027344 1.105469 116.066406 1.894531 " fill-opacity="1" fill-rule="nonzero"/></g><path fill="rgb(100%, 100%, 100%)" d="M 18.574219 112.527344 C 17.59375 112.933594 16.679688 113.34375 15.820312 113.761719 L 38.425781 136.371094 C 38.847656 135.511719 39.257812 134.601562 39.660156 133.617188 L 18.574219 112.527344 " fill-opacity="1" fill-rule="nonzero"/><path fill="rgb(100%, 100%, 100%)" d="M 37.839844 108.53125 L 43.652344 114.34375 C 43.703125 113.074219 43.726562 111.765625 43.710938 110.417969 L 41.765625 108.472656 C 40.417969 108.449219 39.109375 108.472656 37.839844 108.53125 " fill-opacity="1" fill-rule="nonzero"/><path fill="rgb(100%, 100%, 100%)" d="M 51.179688 94.609375 L 57.585938 101.019531 C 58.859375 100.953125 60.085938 100.855469 61.277344 100.730469 L 51.46875 90.917969 C 51.339844 92.109375 51.242188 93.335938 51.179688 94.609375 " fill-opacity="1" fill-rule="nonzero"/><path fill="rgb(100%, 100%, 100%)" d="M 56.589844 72.765625 L 79.417969 95.601562 C 80.355469 95.128906 81.214844 94.65625 82 94.195312 L 57.992188 70.191406 C 57.53125 70.976562 57.0625 71.832031 56.589844 72.765625 " fill-opacity="1" fill-rule="nonzero"/><path fill="rgb(100%, 100%, 100%)" d="M 69.546875 58.472656 L 93.699219 82.625 C 94.167969 81.84375 94.644531 81 95.121094 80.066406 L 72.101562 57.050781 C 71.175781 57.527344 70.320312 58.003906 69.546875 58.472656 " fill-opacity="1" fill-rule="nonzero"/><path fill="rgb(100%, 100%, 100%)" d="M 100.367188 62.039062 C 100.503906 60.859375 100.605469 59.636719 100.679688 58.375 L 93.804688 51.492188 C 92.535156 51.566406 91.3125 51.667969 90.132812 51.804688 L 100.367188 62.039062 " fill-opacity="1" fill-rule="nonzero"/><path fill="rgb(100%, 100%, 100%)" d="M 108.195312 42.613281 L 109.582031 44 C 110.941406 44.027344 112.261719 44.015625 113.542969 43.976562 L 108.222656 38.660156 C 108.175781 39.933594 108.167969 41.253906 108.195312 42.613281 " fill-opacity="1" fill-rule="nonzero"/><path fill="rgb(100%, 100%, 100%)" d="M 132.945312 40.109375 C 133.929688 39.71875 134.855469 39.3125 135.722656 38.898438 L 113.292969 16.472656 C 112.882812 17.332031 112.476562 18.265625 112.085938 19.25 L 132.945312 40.109375 " fill-opacity="1" fill-rule="nonzero"/></g></g></g><g mask="url(#mask-2)"><g transform="matrix(1, 0, 0, 1, 824, 29)"><g id="source-11" clip-path="url(#clip-8)"><path fill="rgb(100%, 100%, 100%)" d="M 82.40625 116.253906 L 28.917969 116.253906 L 2.175781 69.929688 L 28.917969 23.613281 L 70.75 23.613281 L 70.75 27.902344 L 31.390625 27.902344 L 7.121094 69.929688 L 31.390625 111.964844 L 79.933594 111.964844 L 104.199219 69.929688 L 84.519531 35.84375 L 88.226562 33.699219 L 109.144531 69.929688 L 82.40625 116.253906 " fill-opacity="1" fill-rule="nonzero"/><path fill="rgb(100%, 100%, 100%)" d="M 74.171875 104.125 L 37.152344 104.125 C 35.96875 104.125 35.015625 103.167969 35.015625 101.988281 C 35.015625 100.804688 35.96875 99.84375 37.152344 99.84375 L 74.171875 99.84375 C 75.351562 99.84375 76.308594 100.804688 76.308594 101.988281 C 76.308594 103.167969 75.351562 104.125 74.171875 104.125 " fill-opacity="1" fill-rule="nonzero"/><path fill="rgb(100%, 100%, 100%)" d="M 147.230469 160.429688 L 105.410156 160.429688 L 78.671875 114.109375 L 105.410156 67.792969 L 158.902344 67.792969 L 185.640625 114.109375 L 164.722656 150.339844 L 161.007812 148.203125 L 180.695312 114.109375 L 156.421875 72.074219 L 107.882812 72.074219 L 83.617188 114.109375 L 107.882812 156.148438 L 147.230469 156.148438 L 147.230469 160.429688 " fill-opacity="1" fill-rule="nonzero"/><path fill="rgb(100%, 100%, 100%)" d="M 150.664062 84.199219 L 113.648438 84.199219 C 112.464844 84.199219 111.507812 83.242188 111.507812 82.054688 C 111.507812 80.871094 112.464844 79.914062 113.648438 79.914062 L 150.664062 79.914062 C 151.847656 79.914062 152.800781 80.871094 152.800781 82.054688 C 152.800781 83.242188 151.847656 84.199219 150.664062 84.199219 " fill-opacity="1" fill-rule="nonzero"/><path fill="rgb(100%, 100%, 100%)" d="M 159.527344 70.980469 L 155.792969 68.886719 L 169.46875 44.546875 L 173.203125 46.648438 L 159.527344 70.980469 " fill-opacity="1" fill-rule="nonzero"/><g clip-path="url(#clip-5)"><path fill="rgb(100%, 100%, 100%)" d="M 175.582031 30.644531 C 171.761719 30.644531 168.652344 33.75 168.652344 37.574219 C 168.652344 41.394531 171.761719 44.503906 175.582031 44.503906 C 179.398438 44.503906 182.511719 41.394531 182.511719 37.574219 C 182.511719 33.75 179.398438 30.644531 175.582031 30.644531 Z M 175.582031 48.792969 C 169.398438 48.792969 164.363281 43.757812 164.363281 37.574219 C 164.363281 31.394531 169.398438 26.363281 175.582031 26.363281 C 181.761719 26.363281 186.792969 31.394531 186.792969 37.574219 C 186.792969 43.757812 181.761719 48.792969 175.582031 48.792969 " fill-opacity="1" fill-rule="nonzero"/></g><path fill="rgb(100%, 100%, 100%)" d="M 17.382812 140.878906 L 13.664062 138.765625 L 28.296875 113.054688 L 32.015625 115.167969 L 17.382812 140.878906 " fill-opacity="1" fill-rule="nonzero"/><g clip-path="url(#clip-6)"><path fill="rgb(100%, 100%, 100%)" d="M 11.269531 140.910156 C 7.449219 140.910156 4.339844 144.015625 4.339844 147.839844 C 4.339844 151.660156 7.449219 154.769531 11.269531 154.769531 C 15.09375 154.769531 18.199219 151.660156 18.199219 147.839844 C 18.199219 144.015625 15.09375 140.910156 11.269531 140.910156 Z M 11.269531 159.058594 C 5.09375 159.058594 0.0585938 154.023438 0.0585938 147.839844 C 0.0585938 141.660156 5.09375 136.628906 11.269531 136.628906 C 17.457031 136.628906 22.488281 141.660156 22.488281 147.839844 C 22.488281 154.023438 17.457031 159.058594 11.269531 159.058594 " fill-opacity="1" fill-rule="nonzero"/></g><path fill="rgb(100%, 100%, 100%)" d="M 103.710938 27.902344 C 102.523438 27.902344 101.566406 26.9375 101.566406 25.757812 C 101.566406 14.507812 92.414062 5.355469 81.164062 5.355469 C 79.984375 5.355469 79.027344 4.398438 79.027344 3.21875 C 79.027344 2.027344 79.984375 1.074219 81.164062 1.074219 C 94.777344 1.074219 105.847656 12.144531 105.847656 25.757812 C 105.847656 26.9375 104.894531 27.902344 103.710938 27.902344 " fill-opacity="1" fill-rule="nonzero"/><path fill="rgb(100%, 100%, 100%)" d="M 81.164062 17.476562 C 76.605469 17.476562 72.894531 21.191406 72.894531 25.757812 C 72.894531 30.324219 76.605469 34.035156 81.164062 34.035156 C 85.730469 34.035156 89.445312 30.324219 89.445312 25.757812 C 89.445312 21.191406 85.730469 17.476562 81.164062 17.476562 Z M 81.164062 38.316406 C 74.242188 38.316406 68.605469 32.679688 68.605469 25.757812 C 68.605469 18.835938 74.242188 13.195312 81.164062 13.195312 C 88.09375 13.195312 93.726562 18.835938 93.726562 25.757812 C 93.726562 32.679688 88.09375 38.316406 81.164062 38.316406 " fill-opacity="1" fill-rule="nonzero"/><path fill="rgb(100%, 100%, 100%)" d="M 157.660156 182.96875 C 156.480469 182.96875 155.515625 182.011719 155.515625 180.832031 C 155.515625 179.640625 156.480469 178.6875 157.660156 178.6875 C 168.910156 178.6875 178.0625 169.53125 178.0625 158.285156 C 178.0625 157.101562 179.019531 156.148438 180.199219 156.148438 C 181.390625 156.148438 182.34375 157.101562 182.34375 158.285156 C 182.34375 171.894531 171.273438 182.96875 157.660156 182.96875 " fill-opacity="1" fill-rule="nonzero"/><path fill="rgb(100%, 100%, 100%)" d="M 157.660156 150.011719 C 153.09375 150.011719 149.382812 153.726562 149.382812 158.285156 C 149.382812 162.851562 153.09375 166.5625 157.660156 166.5625 C 162.226562 166.5625 165.941406 162.851562 165.941406 158.285156 C 165.941406 153.726562 162.226562 150.011719 157.660156 150.011719 Z M 157.660156 170.84375 C 150.738281 170.84375 145.101562 165.214844 145.101562 158.285156 C 145.101562 151.363281 150.738281 145.730469 157.660156 145.730469 C 164.582031 145.730469 170.222656 151.363281 170.222656 158.285156 C 170.222656 165.214844 164.582031 170.84375 157.660156 170.84375 " fill-opacity="1" fill-rule="nonzero"/><path fill="rgb(100%, 100%, 100%)" d="M 101.246094 171.050781 L 97.605469 168.796875 L 104.828125 157.160156 L 108.46875 159.414062 L 101.246094 171.050781 " fill-opacity="1" fill-rule="nonzero"/><g clip-path="url(#clip-7)"><path fill="rgb(100%, 100%, 100%)" d="M 96.242188 171.195312 C 94.113281 171.195312 92.382812 172.925781 92.382812 175.054688 C 92.382812 177.175781 94.113281 178.914062 96.242188 178.914062 C 98.367188 178.914062 100.101562 177.175781 100.101562 175.054688 C 100.101562 172.925781 98.367188 171.195312 96.242188 171.195312 Z M 96.242188 183.195312 C 91.75 183.195312 88.09375 179.539062 88.09375 175.054688 C 88.09375 170.5625 91.75 166.90625 96.242188 166.90625 C 100.730469 166.90625 104.382812 170.5625 104.382812 175.054688 C 104.382812 179.539062 100.730469 183.195312 96.242188 183.195312 " fill-opacity="1" fill-rule="nonzero"/></g><path fill="rgb(100%, 100%, 100%)" d="M 28.296875 26.820312 L 21.5625 15.035156 L 25.285156 12.90625 L 32.015625 24.691406 L 28.296875 26.820312 " fill-opacity="1" fill-rule="nonzero"/><path fill="rgb(100%, 100%, 100%)" d="M 19.703125 5.363281 C 18.128906 5.363281 16.648438 6.332031 16.078125 7.894531 C 15.722656 8.863281 15.765625 9.90625 16.203125 10.847656 C 16.640625 11.78125 17.40625 12.488281 18.375 12.839844 C 19.347656 13.195312 20.398438 13.152344 21.332031 12.714844 C 22.265625 12.285156 22.972656 11.511719 23.328125 10.542969 C 23.679688 9.570312 23.636719 8.527344 23.203125 7.59375 C 22.765625 6.652344 21.992188 5.945312 21.023438 5.59375 C 20.59375 5.433594 20.140625 5.363281 19.703125 5.363281 Z M 19.703125 17.359375 C 18.761719 17.359375 17.820312 17.199219 16.910156 16.863281 C 14.859375 16.121094 13.234375 14.617188 12.3125 12.648438 C 11.402344 10.679688 11.308594 8.46875 12.050781 6.417969 C 13.597656 2.203125 18.28125 0.03125 22.496094 1.570312 C 24.539062 2.3125 26.167969 3.816406 27.085938 5.785156 C 28.003906 7.761719 28.097656 9.972656 27.347656 12.015625 C 26.605469 14.058594 25.109375 15.683594 23.132812 16.601562 C 22.046875 17.105469 20.878906 17.359375 19.703125 17.359375 " fill-opacity="1" fill-rule="nonzero"/></g></g></g><g mask="url(#mask-3)"><g transform="matrix(1, 0, 0, 1, 228, 0)"><g id="source-14" clip-path="url(#clip-13)"><path fill="rgb(100%, 100%, 100%)" d="M 83.417969 116.179688 L 29.929688 116.179688 L 3.1875 69.855469 L 29.929688 23.535156 L 71.761719 23.535156 L 71.761719 27.824219 L 32.402344 27.824219 L 8.132812 69.855469 L 32.402344 111.890625 L 80.945312 111.890625 L 105.210938 69.855469 L 85.53125 35.769531 L 89.238281 33.625 L 110.15625 69.855469 L 83.417969 116.179688 " fill-opacity="1" fill-rule="nonzero"/><path fill="rgb(100%, 100%, 100%)" d="M 75.183594 104.050781 L 38.164062 104.050781 C 36.980469 104.050781 36.027344 103.09375 36.027344 101.914062 C 36.027344 100.730469 36.980469 99.769531 38.164062 99.769531 L 75.183594 99.769531 C 76.363281 99.769531 77.320312 100.730469 77.320312 101.914062 C 77.320312 103.09375 76.363281 104.050781 75.183594 104.050781 " fill-opacity="1" fill-rule="nonzero"/><path fill="rgb(100%, 100%, 100%)" d="M 148.242188 160.355469 L 106.421875 160.355469 L 79.683594 114.035156 L 106.421875 67.71875 L 159.914062 67.71875 L 186.652344 114.035156 L 165.734375 150.265625 L 162.019531 148.128906 L 181.707031 114.035156 L 157.433594 72 L 108.894531 72 L 84.628906 114.035156 L 108.894531 156.070312 L 148.242188 156.070312 L 148.242188 160.355469 " fill-opacity="1" fill-rule="nonzero"/><path fill="rgb(100%, 100%, 100%)" d="M 151.675781 84.121094 L 114.660156 84.121094 C 113.476562 84.121094 112.519531 83.167969 112.519531 81.976562 C 112.519531 80.796875 113.476562 79.839844 114.660156 79.839844 L 151.675781 79.839844 C 152.859375 79.839844 153.8125 80.796875 153.8125 81.976562 C 153.8125 83.167969 152.859375 84.121094 151.675781 84.121094 " fill-opacity="1" fill-rule="nonzero"/><path fill="rgb(100%, 100%, 100%)" d="M 160.539062 70.90625 L 156.804688 68.8125 L 170.480469 44.472656 L 174.214844 46.570312 L 160.539062 70.90625 " fill-opacity="1" fill-rule="nonzero"/><g clip-path="url(#clip-9)"><path fill="rgb(100%, 100%, 100%)" d="M 176.59375 30.570312 C 172.773438 30.570312 169.664062 33.675781 169.664062 37.496094 C 169.664062 41.320312 172.773438 44.425781 176.59375 44.425781 C 180.410156 44.425781 183.523438 41.320312 183.523438 37.496094 C 183.523438 33.675781 180.410156 30.570312 176.59375 30.570312 Z M 176.59375 48.714844 C 170.410156 48.714844 165.375 43.683594 165.375 37.496094 C 165.375 31.320312 170.410156 26.285156 176.59375 26.285156 C 182.773438 26.285156 187.804688 31.320312 187.804688 37.496094 C 187.804688 43.683594 182.773438 48.714844 176.59375 48.714844 " fill-opacity="1" fill-rule="nonzero"/></g><path fill="rgb(100%, 100%, 100%)" d="M 18.394531 140.804688 L 14.675781 138.691406 L 29.308594 112.976562 L 33.027344 115.09375 L 18.394531 140.804688 " fill-opacity="1" fill-rule="nonzero"/><path fill="rgb(100%, 100%, 100%)" d="M 12.28125 140.835938 C 8.460938 140.835938 5.351562 143.941406 5.351562 147.765625 C 5.351562 151.585938 8.460938 154.691406 12.28125 154.691406 C 16.105469 154.691406 19.210938 151.585938 19.210938 147.765625 C 19.210938 143.941406 16.105469 140.835938 12.28125 140.835938 Z M 12.28125 158.980469 C 6.105469 158.980469 1.070312 153.949219 1.070312 147.765625 C 1.070312 141.585938 6.105469 136.550781 12.28125 136.550781 C 18.46875 136.550781 23.5 141.585938 23.5 147.765625 C 23.5 153.949219 18.46875 158.980469 12.28125 158.980469 " fill-opacity="1" fill-rule="nonzero"/><g clip-path="url(#clip-10)"><path fill="rgb(100%, 100%, 100%)" d="M 104.722656 27.824219 C 103.535156 27.824219 102.578125 26.863281 102.578125 25.679688 C 102.578125 14.433594 93.425781 5.28125 82.175781 5.28125 C 80.996094 5.28125 80.039062 4.324219 80.039062 3.140625 C 80.039062 1.953125 80.996094 0.996094 82.175781 0.996094 C 95.789062 0.996094 106.859375 12.070312 106.859375 25.679688 C 106.859375 26.863281 105.90625 27.824219 104.722656 27.824219 " fill-opacity="1" fill-rule="nonzero"/></g><path fill="rgb(100%, 100%, 100%)" d="M 82.175781 17.402344 C 77.617188 17.402344 73.90625 21.113281 73.90625 25.679688 C 73.90625 30.246094 77.617188 33.960938 82.175781 33.960938 C 86.742188 33.960938 90.457031 30.246094 90.457031 25.679688 C 90.457031 21.113281 86.742188 17.402344 82.175781 17.402344 Z M 82.175781 38.242188 C 75.253906 38.242188 69.617188 32.601562 69.617188 25.679688 C 69.617188 18.757812 75.253906 13.121094 82.175781 13.121094 C 89.105469 13.121094 94.738281 18.757812 94.738281 25.679688 C 94.738281 32.601562 89.105469 38.242188 82.175781 38.242188 " fill-opacity="1" fill-rule="nonzero"/><path fill="rgb(100%, 100%, 100%)" d="M 158.671875 182.890625 C 157.492188 182.890625 156.527344 181.9375 156.527344 180.753906 C 156.527344 179.566406 157.492188 178.609375 158.671875 178.609375 C 169.921875 178.609375 179.074219 169.457031 179.074219 158.210938 C 179.074219 157.027344 180.03125 156.070312 181.210938 156.070312 C 182.402344 156.070312 183.355469 157.027344 183.355469 158.210938 C 183.355469 171.820312 172.285156 182.890625 158.671875 182.890625 " fill-opacity="1" fill-rule="nonzero"/><path fill="rgb(100%, 100%, 100%)" d="M 158.671875 149.9375 C 154.105469 149.9375 150.394531 153.648438 150.394531 158.210938 C 150.394531 162.773438 154.105469 166.488281 158.671875 166.488281 C 163.238281 166.488281 166.953125 162.773438 166.953125 158.210938 C 166.953125 153.648438 163.238281 149.9375 158.671875 149.9375 Z M 158.671875 170.769531 C 151.75 170.769531 146.113281 165.136719 146.113281 158.210938 C 146.113281 151.285156 151.75 145.65625 158.671875 145.65625 C 165.59375 145.65625 171.234375 151.285156 171.234375 158.210938 C 171.234375 165.136719 165.59375 170.769531 158.671875 170.769531 " fill-opacity="1" fill-rule="nonzero"/><path fill="rgb(100%, 100%, 100%)" d="M 102.257812 170.972656 L 98.617188 168.71875 L 105.839844 157.085938 L 109.480469 159.339844 L 102.257812 170.972656 " fill-opacity="1" fill-rule="nonzero"/><g clip-path="url(#clip-11)"><path fill="rgb(100%, 100%, 100%)" d="M 97.253906 171.121094 C 95.125 171.121094 93.394531 172.847656 93.394531 174.976562 C 93.394531 177.101562 95.125 178.835938 97.253906 178.835938 C 99.375 178.835938 101.113281 177.101562 101.113281 174.976562 C 101.113281 172.847656 99.375 171.121094 97.253906 171.121094 Z M 97.253906 183.117188 C 92.761719 183.117188 89.105469 179.464844 89.105469 174.976562 C 89.105469 170.484375 92.761719 166.832031 97.253906 166.832031 C 101.742188 166.832031 105.394531 170.484375 105.394531 174.976562 C 105.394531 179.464844 101.742188 183.117188 97.253906 183.117188 " fill-opacity="1" fill-rule="nonzero"/></g><path fill="rgb(100%, 100%, 100%)" d="M 29.308594 26.746094 L 22.574219 14.957031 L 26.296875 12.828125 L 33.027344 24.617188 L 29.308594 26.746094 " fill-opacity="1" fill-rule="nonzero"/><g clip-path="url(#clip-12)"><path fill="rgb(100%, 100%, 100%)" d="M 20.714844 5.285156 C 19.140625 5.285156 17.660156 6.257812 17.089844 7.816406 C 16.734375 8.789062 16.777344 9.832031 17.214844 10.773438 C 17.652344 11.707031 18.417969 12.414062 19.386719 12.761719 C 20.359375 13.121094 21.40625 13.078125 22.34375 12.640625 C 23.277344 12.207031 23.984375 11.4375 24.339844 10.464844 C 24.691406 9.496094 24.648438 8.453125 24.214844 7.519531 C 23.777344 6.578125 23.003906 5.871094 22.035156 5.519531 C 21.605469 5.359375 21.152344 5.285156 20.714844 5.285156 Z M 20.714844 17.285156 C 19.773438 17.285156 18.832031 17.125 17.921875 16.789062 C 15.871094 16.046875 14.246094 14.542969 13.324219 12.574219 C 12.414062 10.605469 12.320312 8.394531 13.0625 6.34375 C 14.609375 2.128906 19.292969 -0.046875 23.507812 1.492188 C 25.550781 2.238281 27.179688 3.742188 28.097656 5.710938 C 29.015625 7.6875 29.109375 9.898438 28.359375 11.9375 C 27.617188 13.980469 26.121094 15.609375 24.144531 16.527344 C 23.058594 17.03125 21.890625 17.285156 20.714844 17.285156 " fill-opacity="1" fill-rule="nonzero"/></g></g></g></g><g mask="url(#mask-4)"><g transform="matrix(1, 0, 0, 1, 621, 0)"><g id="source-17" clip-path="url(#clip-17)"><g clip-path="url(#clip-14)"><path fill="rgb(100%, 100%, 100%)" d="M 90.277344 60.035156 C 90.152344 59.847656 89.96875 59.699219 89.714844 59.660156 C 82.519531 58.546875 74.628906 59.53125 67.378906 59.824219 C 59.230469 60.152344 50.898438 59.867188 42.792969 60.625 C 42.628906 60.640625 42.492188 60.71875 42.386719 60.828125 C 33.832031 61.492188 28.429688 70.996094 28.988281 78.917969 C 29.265625 82.875 30.632812 86.8125 33.335938 89.789062 C 35.902344 92.621094 41.269531 96.4375 45.285156 94.859375 C 45.375 94.824219 45.457031 94.773438 45.535156 94.714844 C 52.546875 95.078125 59.828125 94.269531 66.820312 94.292969 C 66.90625 94.300781 66.992188 94.304688 67.078125 94.292969 C 74.960938 94.332031 83.035156 94.945312 90.890625 94.238281 C 91.320312 94.199219 91.582031 93.9375 91.714844 93.613281 C 94.355469 93.144531 97.335938 91.21875 98.816406 89.984375 C 102.378906 87.015625 103.730469 82.230469 103.679688 77.742188 C 103.59375 70.386719 98.21875 60.742188 90.277344 60.035156 Z M 45.121094 92.839844 C 44.320312 92.34375 43.488281 92.109375 42.582031 91.851562 C 42.585938 91.847656 42.589844 91.84375 42.59375 91.839844 C 42.746094 91.640625 42.644531 91.320312 42.40625 91.246094 C 41.914062 91.09375 41.4375 91.21875 40.9375 91.292969 C 39.492188 90.710938 38.160156 89.851562 36.976562 88.835938 C 38.226562 89.175781 39.582031 89.128906 40.78125 88.574219 C 41.070312 88.4375 41.113281 87.945312 40.730469 87.898438 C 39.054688 87.699219 37.386719 87.707031 35.863281 86.894531 C 35.175781 86.535156 34.625 86.035156 34.121094 85.480469 C 33.273438 84.015625 32.703125 82.378906 32.382812 80.714844 C 33.828125 83 36.433594 84.535156 39.246094 84.007812 C 39.492188 83.960938 39.578125 83.613281 39.320312 83.511719 C 37.84375 82.90625 36.332031 82.417969 34.988281 81.535156 C 33.730469 80.707031 32.804688 79.417969 32.085938 78.09375 C 32.085938 78.050781 32.078125 78.007812 32.078125 77.964844 C 32.050781 77.167969 32.085938 76.410156 32.167969 75.6875 C 32.402344 76.140625 32.679688 76.578125 33 76.988281 C 34.101562 78.390625 36.300781 79.867188 38.160156 79.476562 C 38.5 79.40625 38.585938 78.988281 38.316406 78.773438 C 37.765625 78.34375 37.066406 78.117188 36.429688 77.824219 C 35.558594 77.421875 34.746094 76.796875 34.09375 76.105469 C 33.394531 75.367188 32.945312 74.488281 32.582031 73.566406 C 32.984375 72.132812 33.605469 70.84375 34.40625 69.675781 C 34.136719 72.144531 35.085938 74.710938 37.484375 75.972656 C 37.863281 76.171875 38.523438 75.832031 38.222656 75.351562 C 37.410156 74.046875 36.433594 72.945312 35.941406 71.457031 C 35.589844 70.386719 35.550781 69.226562 35.65625 68.09375 C 36.628906 67.003906 37.75 66.015625 38.980469 65.097656 C 37.960938 67.574219 37.796875 70.429688 39.238281 72.789062 C 39.507812 73.234375 40.28125 73.050781 40.242188 72.5 C 40.148438 71.265625 39.859375 70.0625 39.773438 68.824219 C 39.65625 67.042969 40.082031 65.375 40.828125 63.8125 C 41.679688 63.25 42.558594 62.710938 43.460938 62.179688 C 43.546875 62.132812 43.609375 62.066406 43.664062 62 C 44.351562 62.070312 45.042969 62.121094 45.738281 62.167969 C 43.03125 63.980469 40.804688 68.152344 41.847656 71.042969 C 41.921875 71.253906 42.269531 71.257812 42.367188 71.066406 C 43.117188 69.617188 43.253906 67.972656 43.921875 66.472656 C 44.675781 64.789062 45.914062 63.613281 47.054688 62.238281 C 48.039062 62.28125 49.023438 62.304688 50.015625 62.316406 C 47.460938 64.355469 45.511719 67.769531 45.394531 70.902344 C 45.378906 71.316406 45.972656 71.488281 46.175781 71.125 C 47.214844 69.265625 47.925781 67.277344 49.042969 65.453125 C 49.726562 64.335938 50.601562 63.339844 51.417969 62.316406 C 52.507812 62.308594 53.601562 62.289062 54.695312 62.253906 C 52.507812 64.082031 50.527344 66.753906 50.757812 69.507812 C 50.785156 69.820312 51.234375 69.957031 51.417969 69.691406 C 52.347656 68.355469 52.855469 66.773438 53.695312 65.367188 C 54.367188 64.246094 55.25 63.171875 56.167969 62.199219 C 57.292969 62.152344 58.421875 62.097656 59.542969 62.039062 C 58.96875 62.488281 58.4375 63 57.917969 63.542969 C 56.761719 64.75 55.21875 66.601562 55.199219 68.347656 C 55.195312 68.730469 55.671875 68.890625 55.9375 68.644531 C 57.027344 67.621094 57.636719 65.996094 58.554688 64.789062 C 59.351562 63.75 60.328125 62.882812 61.238281 61.949219 C 61.921875 61.914062 62.609375 61.875 63.289062 61.839844 C 62.304688 62.5 61.46875 63.433594 60.753906 64.335938 C 59.808594 65.535156 58.480469 67.476562 58.867188 69.050781 C 58.921875 69.269531 59.21875 69.382812 59.386719 69.207031 C 60.410156 68.113281 60.730469 66.34375 61.59375 65.078125 C 62.507812 63.734375 63.792969 62.828125 64.960938 61.761719 C 65.71875 61.726562 66.476562 61.691406 67.226562 61.667969 C 67.378906 61.664062 67.53125 61.664062 67.6875 61.65625 C 63.023438 64.394531 61.355469 71.171875 61.042969 76.097656 C 60.691406 81.625 62.027344 87.246094 64.882812 91.976562 C 58.484375 92 51.484375 91.628906 45.121094 92.839844 Z M 95.667969 89.105469 C 93.625 90.730469 90.484375 90.4375 88.617188 91.894531 C 81.664062 91.589844 74.609375 91.851562 67.644531 91.949219 C 64.964844 87.847656 63.679688 83.234375 63.429688 78.339844 C 63.085938 71.644531 65.859375 66.859375 69.65625 61.613281 C 70.558594 61.597656 71.464844 61.597656 72.371094 61.597656 C 71.621094 62.332031 70.996094 63.21875 70.402344 64.054688 C 69.421875 65.433594 68.558594 66.953125 68.246094 68.625 C 68.195312 68.890625 68.546875 69.007812 68.707031 68.820312 C 69.667969 67.710938 70.335938 66.441406 71.109375 65.203125 C 71.855469 64.011719 72.777344 62.863281 73.414062 61.597656 C 74.441406 61.601562 75.464844 61.609375 76.496094 61.617188 C 74.671875 63.398438 73.039062 65.773438 73.222656 68.214844 C 73.242188 68.457031 73.570312 68.523438 73.707031 68.339844 C 74.324219 67.519531 74.667969 66.609375 75.105469 65.6875 C 75.78125 64.257812 76.59375 62.886719 77.550781 61.621094 C 78.578125 61.625 79.605469 61.628906 80.632812 61.625 C 79.828125 62.460938 79.179688 63.371094 78.734375 64.46875 C 78.363281 65.375 77.953125 66.660156 78.519531 67.546875 C 78.664062 67.777344 78.949219 67.734375 79.09375 67.53125 C 79.707031 66.65625 79.65625 65.234375 80.03125 64.246094 C 80.386719 63.3125 80.855469 62.433594 81.441406 61.617188 C 82.449219 61.609375 83.453125 61.59375 84.457031 61.566406 C 83.101562 63.238281 82.398438 65.644531 83.046875 67.503906 C 83.191406 67.925781 83.78125 67.902344 83.894531 67.476562 C 84.238281 66.207031 84.351562 64.921875 84.804688 63.679688 C 85.105469 62.855469 85.617188 62.183594 86.121094 61.5 C 86.714844 61.472656 87.308594 61.457031 87.902344 61.417969 C 88.308594 61.617188 88.707031 61.820312 89.101562 62.03125 C 87.703125 63.609375 86.648438 65.707031 86.921875 67.753906 C 86.992188 68.292969 87.769531 68.476562 88.003906 67.941406 C 88.316406 67.242188 88.511719 66.507812 88.710938 65.773438 C 89.003906 64.679688 89.519531 63.601562 90.09375 62.578125 C 90.707031 62.929688 91.300781 63.296875 91.875 63.675781 C 90.96875 64.828125 89.71875 66.722656 90.566406 67.960938 C 90.6875 68.136719 90.980469 68.132812 91.128906 68 C 91.605469 67.574219 91.667969 66.949219 91.863281 66.367188 C 92.105469 65.640625 92.417969 64.960938 92.785156 64.300781 C 97.082031 67.386719 100.015625 71.472656 100.328125 77.53125 C 100.546875 81.796875 99.121094 86.363281 95.667969 89.105469 Z M 95.667969 89.105469 " fill-opacity="1" fill-rule="nonzero"/></g><g clip-path="url(#clip-15)"><path fill="rgb(100%, 100%, 100%)" d="M 70.3125 30.703125 C 68.941406 28.8125 64.300781 25.238281 61.417969 26.066406 C 61.257812 25.867188 61.011719 25.730469 60.675781 25.71875 C 52.242188 25.410156 43.800781 25.488281 35.367188 25.636719 C 31.1875 25.710938 27.011719 25.796875 22.832031 25.851562 C 19.378906 25.898438 15.441406 25.390625 12.132812 26.460938 C 12.105469 26.472656 12.09375 26.492188 12.070312 26.507812 C 9.195312 27.085938 6.449219 29.890625 4.882812 31.953125 C 2.683594 34.859375 1.789062 38.773438 1.757812 42.34375 C 1.699219 49.0625 5.488281 55.59375 11.40625 58.652344 C 11.453125 58.695312 11.496094 58.746094 11.566406 58.769531 C 11.636719 58.792969 11.710938 58.804688 11.785156 58.828125 C 12.519531 59.183594 13.277344 59.5 14.074219 59.742188 C 14.578125 59.902344 14.988281 59.753906 15.273438 59.460938 C 17.824219 59.652344 20.480469 59.398438 22.964844 59.367188 C 27.203125 59.316406 31.441406 59.230469 35.679688 59.117188 C 43.765625 58.902344 51.886719 58.675781 59.953125 58.039062 C 63.339844 58.253906 67.671875 54.65625 69.460938 52.601562 C 72.042969 49.640625 73.238281 45.765625 73.546875 41.925781 C 73.867188 37.914062 72.65625 33.9375 70.3125 30.703125 Z M 22.703125 56.957031 C 20.230469 57.015625 17.589844 56.859375 15.066406 57.148438 C 15.023438 57.121094 14.988281 57.09375 14.941406 57.070312 C 12.90625 56.078125 11.140625 54.835938 9.667969 53.390625 C 10.804688 53.855469 12.003906 54.015625 13.140625 53.601562 C 13.492188 53.472656 13.390625 53.042969 13.128906 52.898438 C 11.984375 52.273438 10.539062 52.203125 9.300781 51.765625 C 8.730469 51.566406 8.183594 51.300781 7.65625 51 C 6.859375 49.835938 6.203125 48.578125 5.746094 47.210938 C 6.542969 47.828125 7.503906 48.246094 8.582031 48.460938 C 9.035156 48.550781 9.132812 47.902344 8.710938 47.773438 C 7.308594 47.34375 6.207031 46.507812 5.261719 45.46875 C 5.011719 44.28125 4.886719 43.03125 4.898438 41.710938 C 4.898438 41.546875 4.914062 41.382812 4.921875 41.21875 C 5.632812 43.097656 7.082031 44.632812 9.175781 45.472656 C 9.648438 45.660156 9.863281 44.964844 9.507812 44.707031 C 7.289062 43.113281 5.738281 41.335938 5.238281 38.78125 C 5.640625 36.910156 6.394531 35.121094 7.421875 33.488281 C 7.421875 33.488281 7.421875 33.484375 7.421875 33.484375 C 6.507812 35.929688 6.574219 38.679688 8.121094 41.082031 C 8.371094 41.46875 8.96875 41.277344 8.886719 40.804688 C 8.238281 37.074219 8.199219 34.015625 9.929688 30.800781 C 11.253906 29.714844 12.6875 28.761719 13.792969 27.496094 C 14.144531 27.566406 14.503906 27.609375 14.863281 27.648438 C 13.878906 28.433594 13.035156 29.5 12.394531 30.367188 C 10.984375 32.273438 9.6875 35.339844 10.210938 37.730469 C 10.285156 38.074219 10.769531 38.191406 10.917969 37.824219 C 11.785156 35.726562 11.929688 33.570312 13.117188 31.539062 C 14.0625 29.921875 15.671875 29.039062 16.886719 27.796875 C 17.804688 27.820312 18.730469 27.804688 19.652344 27.777344 C 16.777344 30.019531 14.773438 34.242188 15.144531 37.515625 C 15.199219 37.992188 15.796875 38.097656 15.96875 37.636719 C 16.773438 35.519531 17.253906 33.40625 18.4375 31.433594 C 19.308594 29.976562 20.558594 28.902344 21.714844 27.714844 C 22.046875 27.710938 22.375 27.703125 22.699219 27.703125 C 23.308594 27.703125 23.917969 27.695312 24.53125 27.691406 C 21.285156 30.09375 18.289062 35.117188 19.007812 38.515625 C 19.050781 38.710938 19.332031 38.859375 19.472656 38.644531 C 20.710938 36.746094 21.109375 34.355469 22.269531 32.363281 C 23.355469 30.492188 24.960938 29.199219 26.394531 27.675781 C 27.316406 27.664062 28.238281 27.648438 29.160156 27.632812 C 25.542969 30.039062 22.539062 35.152344 22.988281 39.039062 C 23.019531 39.308594 23.4375 39.355469 23.554688 39.128906 C 24.660156 36.949219 25.171875 34.570312 26.476562 32.449219 C 27.714844 30.4375 29.507812 29.121094 31.207031 27.59375 C 31.945312 27.582031 32.683594 27.566406 33.421875 27.554688 C 29.410156 30.261719 25.765625 36.085938 26.777344 40.3125 C 26.824219 40.5 27.09375 40.523438 27.183594 40.359375 C 28.402344 38.105469 28.714844 35.460938 29.996094 33.164062 C 31.371094 30.703125 33.40625 29.140625 35.5625 27.515625 C 36.550781 27.5 37.542969 27.492188 38.53125 27.480469 C 33.296875 29.523438 31.488281 37.824219 31.152344 42.667969 C 30.871094 46.710938 31.660156 52.933594 34.484375 56.667969 C 30.558594 56.773438 26.628906 56.863281 22.703125 56.957031 Z M 65.554688 52.742188 C 63.878906 54.292969 61.398438 54.652344 59.484375 55.625 C 52.140625 56.003906 44.804688 56.363281 37.453125 56.585938 C 36.613281 54.917969 35.523438 53.394531 34.855469 51.59375 C 33.832031 48.824219 33.574219 45.769531 33.648438 42.847656 C 33.71875 40.152344 34.382812 37.535156 35.371094 35.039062 C 36.464844 32.285156 38.660156 30.367188 39.949219 27.78125 C 40 27.679688 39.996094 27.566406 39.972656 27.460938 C 40.847656 27.453125 41.722656 27.453125 42.597656 27.449219 C 39.761719 30.078125 36.980469 34.535156 37.851562 37.9375 C 37.914062 38.183594 38.234375 38.117188 38.332031 37.945312 C 39.445312 35.941406 39.699219 33.5 40.820312 31.417969 C 41.632812 29.917969 42.742188 28.679688 43.871094 27.441406 C 44.371094 27.4375 44.867188 27.445312 45.363281 27.445312 C 43.410156 29.667969 42.019531 33.0625 42.007812 35.726562 C 42.007812 36.035156 42.378906 36.132812 42.527344 35.859375 C 43.25 34.503906 43.746094 33.019531 44.34375 31.605469 C 44.957031 30.148438 45.835938 28.835938 46.566406 27.445312 C 47.382812 27.449219 48.199219 27.457031 49.011719 27.464844 C 47.117188 29.371094 45.671875 32.207031 45.828125 34.628906 C 45.84375 34.910156 46.25 35.09375 46.402344 34.792969 C 47.21875 33.210938 47.636719 31.488281 48.53125 29.929688 C 49.039062 29.039062 49.675781 28.253906 50.324219 27.476562 C 51.15625 27.488281 51.988281 27.515625 52.816406 27.53125 C 52.25 28.324219 51.800781 29.222656 51.390625 30.070312 C 50.734375 31.4375 50.089844 32.949219 50.3125 34.484375 C 50.359375 34.8125 50.742188 34.914062 50.933594 34.628906 C 51.820312 33.308594 52.109375 31.675781 52.734375 30.222656 C 53.128906 29.3125 53.664062 28.453125 54.097656 27.558594 C 54.878906 27.582031 55.664062 27.605469 56.445312 27.632812 C 55.828125 28.378906 55.324219 29.171875 54.882812 30.097656 C 54.277344 31.375 53.566406 32.992188 53.9375 34.414062 C 54.035156 34.792969 54.496094 34.816406 54.703125 34.527344 C 55.417969 33.546875 55.601562 32.222656 56 31.085938 C 56.40625 29.929688 56.921875 28.792969 57.425781 27.664062 C 58.21875 27.695312 59.011719 27.734375 59.800781 27.773438 C 59.015625 28.484375 58.542969 29.316406 58.101562 30.296875 C 57.621094 31.371094 56.941406 32.769531 57.308594 33.945312 C 57.402344 34.25 57.792969 34.371094 58.027344 34.136719 C 58.777344 33.367188 58.9375 32.167969 59.289062 31.179688 C 59.671875 30.09375 60.171875 29.09375 60.445312 27.972656 C 60.460938 27.910156 60.449219 27.855469 60.429688 27.804688 C 60.488281 27.804688 60.542969 27.808594 60.601562 27.808594 C 60.609375 27.8125 60.613281 27.808594 60.625 27.808594 C 61.074219 28.199219 61.632812 28.414062 62.277344 28.644531 C 64.410156 29.398438 66.171875 30.414062 67.683594 32.117188 C 69.859375 34.5625 70.578125 38.011719 70.582031 41.183594 C 70.585938 45.457031 68.675781 49.851562 65.554688 52.742188 Z M 65.554688 52.742188 " fill-opacity="1" fill-rule="nonzero"/></g><g clip-path="url(#clip-16)"><path fill="rgb(100%, 100%, 100%)" d="M 129.039062 21.386719 C 129.257812 21.089844 129.242188 20.609375 128.90625 20.34375 C 126.015625 18.085938 122.210938 16.964844 118.859375 15.511719 C 114.871094 13.78125 110.882812 12.039062 106.894531 10.300781 C 100.015625 7.304688 92.824219 3.109375 85.460938 1.527344 C 84.914062 1.410156 84.589844 1.894531 84.597656 2.363281 C 78.316406 0.0351562 71.160156 4.800781 68.199219 10.285156 C 64.546875 17.058594 66.683594 25.671875 71.441406 31.261719 C 71.8125 31.695312 72.304688 31.835938 72.765625 31.78125 C 75.40625 33.847656 78.695312 35.160156 81.660156 36.6875 C 86.03125 38.9375 90.398438 41.203125 94.816406 43.371094 C 98.667969 45.261719 102.582031 47.019531 106.578125 48.589844 C 108.898438 49.5 112.101562 51.195312 114.753906 50.886719 C 117.539062 52.648438 122.277344 51.359375 124.996094 50.15625 C 128.363281 48.660156 130.691406 45.402344 132.074219 42.121094 C 134.539062 36.269531 134.105469 26.171875 129.039062 21.386719 Z M 94.796875 40.601562 C 91.226562 38.867188 87.691406 37.054688 84.125 35.308594 C 80.96875 33.761719 77.535156 31.726562 73.996094 30.941406 C 74.164062 30.578125 74.140625 30.136719 73.789062 29.699219 C 73.027344 28.753906 72.355469 27.765625 71.777344 26.742188 C 72.234375 26.933594 72.707031 27.050781 73.1875 27.050781 C 73.539062 27.046875 73.789062 26.519531 73.472656 26.289062 C 72.800781 25.800781 71.980469 25.523438 71.253906 25.113281 C 71.113281 25.03125 70.976562 24.9375 70.835938 24.847656 C 70.3125 23.640625 69.914062 22.394531 69.667969 21.125 C 70.457031 21.835938 71.429688 22.285156 72.542969 22.234375 C 72.902344 22.21875 73.128906 21.726562 72.828125 21.476562 C 71.875 20.6875 70.746094 20.230469 69.898438 19.296875 C 69.710938 19.089844 69.542969 18.867188 69.386719 18.636719 C 69.351562 17.621094 69.40625 16.597656 69.574219 15.578125 C 69.824219 16.503906 70.273438 17.355469 70.9375 18.015625 C 71.183594 18.261719 71.695312 18.140625 71.613281 17.726562 C 71.347656 16.34375 70.835938 15.050781 70.722656 13.632812 C 70.667969 12.957031 70.707031 12.273438 70.78125 11.59375 C 70.8125 11.519531 70.839844 11.441406 70.875 11.367188 C 71.875 9.230469 73.226562 7.832031 74.800781 6.875 C 73.363281 8.992188 72.648438 11.71875 73.953125 14.066406 C 74.109375 14.351562 74.644531 14.394531 74.664062 13.980469 C 74.699219 13.074219 74.613281 12.175781 74.613281 11.273438 C 74.609375 9.460938 75.25 7.671875 76.207031 6.152344 C 77.292969 5.683594 78.449219 5.359375 79.65625 5.113281 C 77.753906 6.804688 76.097656 9.246094 76.179688 11.40625 C 76.195312 11.757812 76.644531 11.804688 76.839844 11.589844 C 77.695312 10.652344 78.113281 9.355469 78.769531 8.277344 C 79.578125 6.964844 80.660156 5.859375 81.722656 4.75 C 83.300781 4.503906 84.914062 4.304688 86.503906 3.992188 C 86.542969 4.015625 86.582031 4.035156 86.621094 4.058594 C 83.78125 4.878906 80.851562 6.9375 79.867188 9.152344 C 79.691406 9.550781 80.222656 9.777344 80.511719 9.578125 C 81.820312 8.671875 82.816406 7.414062 84.167969 6.523438 C 85.445312 5.679688 86.769531 5.308594 88.105469 4.894531 C 88.578125 5.15625 89.070312 5.402344 89.558594 5.648438 C 87.027344 6.566406 84.605469 8.371094 84.027344 10.519531 C 83.980469 10.6875 84.191406 10.875 84.355469 10.792969 C 85.777344 10.101562 86.8125 8.785156 88.128906 7.90625 C 89.113281 7.246094 90.183594 6.839844 91.285156 6.503906 C 92.230469 6.953125 93.195312 7.378906 94.164062 7.796875 C 93.515625 8.066406 92.890625 8.410156 92.289062 8.824219 C 91.039062 9.683594 89.246094 11.183594 89.261719 12.808594 C 89.261719 13.054688 89.523438 13.195312 89.738281 13.085938 C 91.035156 12.425781 91.832031 10.832031 93.003906 9.929688 C 93.804688 9.304688 94.710938 8.832031 95.648438 8.425781 C 96.578125 8.8125 97.515625 9.191406 98.453125 9.5625 C 95.738281 10.464844 92.695312 12.472656 92.238281 15.03125 C 92.171875 15.410156 92.652344 15.527344 92.898438 15.355469 C 94.273438 14.398438 95.167969 12.878906 96.566406 11.878906 C 97.59375 11.148438 98.769531 10.636719 99.9375 10.148438 C 100.722656 10.457031 101.496094 10.761719 102.269531 11.070312 C 98.996094 12.136719 95.59375 14.351562 94.996094 17.421875 C 94.925781 17.777344 95.359375 17.917969 95.609375 17.761719 C 97.261719 16.722656 98.417969 14.964844 100.039062 13.8125 C 101.265625 12.9375 102.632812 12.316406 104.035156 11.769531 C 105.167969 12.226562 106.292969 12.6875 107.386719 13.160156 C 107.59375 13.25 107.800781 13.339844 108.011719 13.429688 C 102.828125 13.875 98.226562 20.773438 96.328125 24.6875 C 94.304688 28.851562 92.605469 35.953125 94.796875 40.601562 Z M 130.105469 38.964844 C 129.394531 42.203125 127.519531 45.09375 124.832031 47.019531 C 123.449219 48.007812 121.816406 48.527344 120.160156 48.824219 C 118.414062 49.140625 116.757812 48.574219 115.109375 48.921875 C 112.957031 47.457031 109.652344 47.046875 107.316406 46.164062 C 103.980469 44.902344 100.734375 43.4375 97.515625 41.910156 C 97.539062 41.8125 97.554688 41.703125 97.542969 41.582031 C 97.351562 39.210938 96.59375 37 96.566406 34.582031 C 96.523438 31.257812 97.652344 27.886719 99.070312 24.941406 C 100.136719 22.726562 101.589844 20.769531 103.265625 18.980469 C 105.09375 17.027344 107.707031 15.992188 109.464844 14.054688 C 110.339844 14.433594 111.21875 14.808594 112.09375 15.1875 C 111.089844 15.796875 110.105469 16.675781 109.542969 17.128906 C 107.902344 18.449219 106.265625 19.875 105.457031 21.851562 C 105.347656 22.117188 105.652344 22.289062 105.851562 22.113281 C 107.253906 20.875 108.472656 19.460938 109.894531 18.238281 C 110.953125 17.324219 112.113281 16.539062 113.324219 15.835938 C 113.367188 15.808594 113.398438 15.789062 113.4375 15.769531 C 114.308594 16.144531 115.179688 16.515625 116.050781 16.894531 C 113.1875 18.195312 110.472656 20.808594 109.890625 23.632812 C 109.835938 23.90625 110.140625 24.164062 110.378906 23.941406 C 111.285156 23.09375 111.953125 22.152344 112.746094 21.195312 C 114.039062 19.644531 115.691406 18.523438 117.375 17.460938 C 117.996094 17.730469 118.613281 17.996094 119.234375 18.261719 C 119.519531 18.386719 119.804688 18.515625 120.09375 18.644531 C 117.683594 19.796875 115.195312 22.390625 114.476562 24.714844 C 114.371094 25.046875 114.804688 25.445312 115.089844 25.144531 C 115.871094 24.324219 116.507812 23.371094 117.246094 22.507812 C 118.390625 21.167969 119.816406 20.210938 121.191406 19.132812 C 121.992188 19.5 122.800781 19.867188 123.617188 20.203125 C 122.742188 20.800781 121.929688 21.46875 121.140625 22.195312 C 120.175781 23.082031 118.898438 24.246094 118.671875 25.589844 C 118.628906 25.835938 118.902344 26.109375 119.152344 25.984375 C 120.210938 25.445312 120.933594 24.273438 121.703125 23.390625 C 122.582031 22.386719 123.570312 21.476562 124.566406 20.582031 C 125.035156 20.757812 125.503906 20.925781 125.980469 21.074219 C 125.992188 21.183594 126.019531 21.289062 126.066406 21.398438 C 126.195312 21.679688 126.332031 21.953125 126.46875 22.222656 C 125.503906 22.648438 124.734375 23.398438 124.03125 24.171875 C 123.328125 24.953125 121.917969 26.300781 122.066406 27.429688 C 122.09375 27.648438 122.285156 27.796875 122.507812 27.734375 C 123.417969 27.488281 124.046875 26.273438 124.621094 25.574219 C 125.339844 24.695312 126.179688 23.902344 126.867188 22.996094 C 127.242188 23.695312 127.628906 24.371094 128.007812 25.050781 C 127.074219 25.851562 126.066406 26.683594 125.542969 27.804688 C 125.316406 28.292969 125.988281 28.925781 126.417969 28.503906 C 127.183594 27.75 127.878906 26.921875 128.578125 26.101562 C 128.921875 26.757812 129.242188 27.429688 129.523438 28.136719 C 129.371094 27.9375 129.0625 27.84375 128.828125 28.074219 C 128.308594 28.589844 127.617188 29.191406 127.394531 29.90625 C 127.320312 30.136719 127.582031 30.378906 127.804688 30.296875 C 128.546875 30.039062 128.976562 29.226562 129.496094 28.675781 C 129.585938 28.585938 129.613281 28.484375 129.613281 28.390625 C 129.832031 28.96875 130.027344 29.566406 130.171875 30.203125 C 130.828125 33.109375 130.742188 36.066406 130.105469 38.964844 Z M 130.105469 38.964844 " fill-opacity="1" fill-rule="nonzero"/></g><path fill="rgb(100%, 100%, 100%)" d="M 61.546875 30.566406 C 61.3125 31.089844 61.09375 31.621094 60.878906 32.152344 C 60.699219 32.582031 60.464844 33.042969 60.667969 33.496094 C 60.742188 33.664062 60.941406 33.679688 61.085938 33.625 C 61.511719 33.453125 61.648438 32.910156 61.773438 32.511719 C 61.949219 31.96875 62.121094 31.429688 62.3125 30.894531 C 62.46875 30.453125 61.738281 30.136719 61.546875 30.566406 Z M 61.546875 30.566406 " fill-opacity="1" fill-rule="nonzero"/></g></g></g><g mask="url(#mask-5)"><g transform="matrix(1, 0, 0, 1, 46, 145)"><g id="source-20" clip-path="url(#clip-20)"><g clip-path="url(#clip-18)"><path fill="rgb(100%, 100%, 100%)" d="M 89.84375 59.9375 C 89.71875 59.75 89.53125 59.601562 89.28125 59.5625 C 82.082031 58.449219 74.195312 59.433594 66.941406 59.726562 C 58.796875 60.054688 50.464844 59.765625 42.359375 60.527344 C 42.191406 60.542969 42.054688 60.621094 41.953125 60.730469 C 33.398438 61.394531 27.996094 70.894531 28.554688 78.820312 C 28.832031 82.777344 30.199219 86.714844 32.902344 89.691406 C 35.46875 92.519531 40.835938 96.339844 44.851562 94.761719 C 44.941406 94.722656 45.023438 94.671875 45.097656 94.617188 C 52.113281 94.976562 59.394531 94.171875 66.382812 94.191406 C 66.46875 94.203125 66.558594 94.203125 66.644531 94.191406 C 74.527344 94.234375 82.601562 94.847656 90.457031 94.140625 C 90.886719 94.101562 91.148438 93.839844 91.28125 93.515625 C 93.921875 93.046875 96.902344 91.117188 98.382812 89.886719 C 101.945312 86.914062 103.296875 82.128906 103.246094 77.644531 C 103.160156 70.289062 97.78125 60.640625 89.84375 59.9375 Z M 44.6875 92.742188 C 43.886719 92.246094 43.050781 92.011719 42.148438 91.753906 C 42.152344 91.746094 42.15625 91.746094 42.160156 91.738281 C 42.3125 91.542969 42.210938 91.222656 41.972656 91.148438 C 41.480469 90.996094 41.003906 91.121094 40.503906 91.195312 C 39.054688 90.613281 37.726562 89.753906 36.542969 88.734375 C 37.792969 89.078125 39.148438 89.03125 40.347656 88.472656 C 40.632812 88.339844 40.679688 87.847656 40.296875 87.800781 C 38.617188 87.597656 36.953125 87.605469 35.425781 86.796875 C 34.742188 86.433594 34.191406 85.9375 33.6875 85.378906 C 32.839844 83.917969 32.269531 82.28125 31.949219 80.613281 C 33.394531 82.902344 36 84.4375 38.8125 83.90625 C 39.058594 83.859375 39.144531 83.515625 38.886719 83.410156 C 37.410156 82.804688 35.898438 82.320312 34.554688 81.433594 C 33.296875 80.605469 32.371094 79.320312 31.652344 77.992188 C 31.648438 77.953125 31.644531 77.910156 31.644531 77.867188 C 31.617188 77.070312 31.648438 76.3125 31.734375 75.585938 C 31.96875 76.042969 32.246094 76.480469 32.566406 76.886719 C 33.667969 78.292969 35.867188 79.769531 37.726562 79.378906 C 38.066406 79.308594 38.152344 78.890625 37.882812 78.675781 C 37.332031 78.242188 36.632812 78.019531 35.996094 77.726562 C 35.125 77.324219 34.3125 76.699219 33.660156 76.007812 C 32.960938 75.269531 32.511719 74.386719 32.148438 73.46875 C 32.546875 72.035156 33.171875 70.746094 33.972656 69.578125 C 33.703125 72.046875 34.652344 74.609375 37.050781 75.871094 C 37.429688 76.074219 38.089844 75.730469 37.789062 75.25 C 36.976562 73.949219 36 72.847656 35.507812 71.359375 C 35.15625 70.285156 35.117188 69.128906 35.21875 67.996094 C 36.191406 66.90625 37.316406 65.917969 38.542969 65 C 37.527344 67.476562 37.363281 70.332031 38.804688 72.691406 C 39.074219 73.136719 39.847656 72.953125 39.808594 72.402344 C 39.714844 71.167969 39.425781 69.964844 39.339844 68.722656 C 39.222656 66.945312 39.648438 65.277344 40.394531 63.714844 C 41.246094 63.152344 42.125 62.609375 43.027344 62.082031 C 43.109375 62.03125 43.175781 61.96875 43.230469 61.898438 C 43.917969 61.96875 44.609375 62.023438 45.300781 62.066406 C 42.597656 63.878906 40.371094 68.050781 41.414062 70.945312 C 41.488281 71.152344 41.835938 71.160156 41.933594 70.96875 C 42.683594 69.519531 42.820312 67.871094 43.488281 66.375 C 44.242188 64.691406 45.476562 63.515625 46.621094 62.140625 C 47.605469 62.183594 48.589844 62.207031 49.578125 62.214844 C 47.027344 64.257812 45.078125 67.671875 44.960938 70.804688 C 44.945312 71.21875 45.539062 71.390625 45.742188 71.023438 C 46.78125 69.167969 47.492188 67.179688 48.609375 65.351562 C 49.292969 64.238281 50.167969 63.242188 50.984375 62.21875 C 52.074219 62.210938 53.167969 62.191406 54.257812 62.15625 C 52.074219 63.984375 50.09375 66.65625 50.324219 69.410156 C 50.351562 69.722656 50.800781 69.855469 50.984375 69.59375 C 51.910156 68.257812 52.421875 66.671875 53.261719 65.269531 C 53.933594 64.148438 54.816406 63.074219 55.734375 62.097656 C 56.859375 62.054688 57.984375 62 59.109375 61.941406 C 58.535156 62.390625 58.003906 62.898438 57.484375 63.441406 C 56.328125 64.652344 54.785156 66.503906 54.765625 68.246094 C 54.761719 68.632812 55.238281 68.792969 55.5 68.546875 C 56.59375 67.523438 57.203125 65.894531 58.121094 64.691406 C 58.914062 63.652344 59.894531 62.785156 60.800781 61.851562 C 61.488281 61.816406 62.175781 61.777344 62.855469 61.742188 C 61.871094 62.402344 61.035156 63.335938 60.320312 64.234375 C 59.375 65.433594 58.046875 67.378906 58.433594 68.953125 C 58.488281 69.171875 58.785156 69.28125 58.949219 69.109375 C 59.976562 68.015625 60.296875 66.242188 61.160156 64.976562 C 62.074219 63.636719 63.359375 62.730469 64.527344 61.664062 C 65.285156 61.628906 66.042969 61.59375 66.792969 61.570312 C 66.945312 61.566406 67.097656 61.566406 67.25 61.558594 C 62.589844 64.292969 60.921875 71.070312 60.609375 76 C 60.257812 81.527344 61.59375 87.148438 64.449219 91.875 C 58.046875 91.898438 51.050781 91.53125 44.6875 92.742188 Z M 95.234375 89.007812 C 93.191406 90.628906 90.050781 90.339844 88.183594 91.796875 C 81.230469 91.492188 74.175781 91.753906 67.210938 91.851562 C 64.53125 87.75 63.246094 83.136719 62.996094 78.238281 C 62.652344 71.546875 65.425781 66.761719 69.222656 61.511719 C 70.125 61.5 71.027344 61.5 71.933594 61.5 C 71.1875 62.230469 70.5625 63.121094 69.96875 63.957031 C 68.988281 65.335938 68.125 66.855469 67.8125 68.523438 C 67.761719 68.792969 68.113281 68.910156 68.273438 68.722656 C 69.234375 67.613281 69.902344 66.34375 70.675781 65.105469 C 71.421875 63.914062 72.34375 62.765625 72.980469 61.5 C 74.003906 61.503906 75.03125 61.511719 76.058594 61.519531 C 74.238281 63.300781 72.605469 65.671875 72.789062 68.117188 C 72.808594 68.359375 73.136719 68.421875 73.273438 68.242188 C 73.890625 67.421875 74.234375 66.511719 74.671875 65.589844 C 75.347656 64.160156 76.160156 62.785156 77.117188 61.523438 C 78.144531 61.527344 79.171875 61.53125 80.199219 61.527344 C 79.394531 62.363281 78.746094 63.273438 78.300781 64.367188 C 77.929688 65.277344 77.519531 66.5625 78.082031 67.449219 C 78.230469 67.679688 78.515625 67.636719 78.65625 67.433594 C 79.269531 66.558594 79.21875 65.136719 79.597656 64.148438 C 79.953125 63.210938 80.421875 62.332031 81.007812 61.519531 C 82.015625 61.511719 83.019531 61.496094 84.023438 61.46875 C 82.667969 63.136719 81.960938 65.546875 82.609375 67.40625 C 82.757812 67.824219 83.347656 67.804688 83.460938 67.375 C 83.804688 66.109375 83.917969 64.824219 84.371094 63.578125 C 84.667969 62.753906 85.183594 62.082031 85.6875 61.398438 C 86.28125 61.375 86.875 61.355469 87.46875 61.316406 C 87.875 61.519531 88.273438 61.722656 88.667969 61.933594 C 87.269531 63.511719 86.214844 65.605469 86.488281 67.65625 C 86.558594 68.195312 87.335938 68.375 87.570312 67.84375 C 87.882812 67.144531 88.078125 66.410156 88.273438 65.671875 C 88.570312 64.582031 89.085938 63.503906 89.660156 62.480469 C 90.273438 62.832031 90.867188 63.195312 91.441406 63.578125 C 90.535156 64.730469 89.285156 66.625 90.132812 67.859375 C 90.253906 68.039062 90.546875 68.035156 90.695312 67.902344 C 91.171875 67.476562 91.234375 66.851562 91.429688 66.265625 C 91.667969 65.542969 91.984375 64.863281 92.351562 64.203125 C 96.648438 67.289062 99.578125 71.375 99.894531 77.433594 C 100.113281 81.699219 98.6875 86.261719 95.234375 89.007812 Z M 95.234375 89.007812 " fill-opacity="1" fill-rule="nonzero"/></g><path fill="rgb(100%, 100%, 100%)" d="M 69.878906 30.605469 C 68.507812 28.714844 63.867188 25.140625 60.984375 25.96875 C 60.824219 25.769531 60.578125 25.628906 60.242188 25.617188 C 51.808594 25.308594 43.367188 25.390625 34.929688 25.539062 C 30.753906 25.609375 26.578125 25.699219 22.398438 25.75 C 18.945312 25.796875 15.007812 25.289062 11.699219 26.363281 C 11.671875 26.375 11.65625 26.394531 11.636719 26.410156 C 8.761719 26.988281 6.015625 29.792969 4.449219 31.855469 C 2.246094 34.761719 1.355469 38.675781 1.324219 42.246094 C 1.265625 48.960938 5.054688 55.492188 10.972656 58.554688 C 11.019531 58.597656 11.0625 58.644531 11.132812 58.671875 C 11.203125 58.695312 11.277344 58.707031 11.347656 58.730469 C 12.085938 59.085938 12.84375 59.402344 13.636719 59.644531 C 14.144531 59.800781 14.554688 59.652344 14.839844 59.363281 C 17.390625 59.550781 20.046875 59.300781 22.53125 59.269531 C 26.769531 59.214844 31.007812 59.132812 35.246094 59.019531 C 43.332031 58.804688 51.453125 58.578125 59.519531 57.9375 C 62.90625 58.152344 67.238281 54.558594 69.027344 52.503906 C 71.605469 49.542969 72.804688 45.667969 73.109375 41.824219 C 73.433594 37.8125 72.21875 33.839844 69.878906 30.605469 Z M 22.269531 56.859375 C 19.796875 56.917969 17.15625 56.761719 14.632812 57.050781 C 14.589844 57.023438 14.554688 56.996094 14.507812 56.972656 C 12.472656 55.980469 10.707031 54.738281 9.234375 53.289062 C 10.371094 53.757812 11.570312 53.917969 12.707031 53.503906 C 13.058594 53.375 12.957031 52.945312 12.695312 52.800781 C 11.550781 52.175781 10.105469 52.101562 8.867188 51.667969 C 8.296875 51.46875 7.75 51.203125 7.222656 50.898438 C 6.421875 49.734375 5.769531 48.480469 5.308594 47.109375 C 6.109375 47.730469 7.066406 48.148438 8.148438 48.363281 C 8.601562 48.453125 8.695312 47.804688 8.277344 47.675781 C 6.875 47.246094 5.773438 46.410156 4.828125 45.371094 C 4.578125 44.183594 4.453125 42.933594 4.464844 41.613281 C 4.464844 41.445312 4.480469 41.285156 4.488281 41.117188 C 5.195312 43 6.648438 44.535156 8.742188 45.371094 C 9.210938 45.558594 9.429688 44.867188 9.070312 44.609375 C 6.855469 43.011719 5.300781 41.234375 4.800781 38.683594 C 5.207031 36.808594 5.960938 35.023438 6.988281 33.386719 C 6.988281 33.386719 6.988281 33.386719 6.988281 33.382812 C 6.074219 35.832031 6.140625 38.582031 7.6875 40.984375 C 7.9375 41.371094 8.535156 41.179688 8.453125 40.707031 C 7.804688 36.976562 7.765625 33.917969 9.496094 30.703125 C 10.820312 29.617188 12.253906 28.664062 13.359375 27.398438 C 13.710938 27.46875 14.070312 27.507812 14.429688 27.550781 C 13.445312 28.335938 12.601562 29.402344 11.960938 30.269531 C 10.550781 32.175781 9.253906 35.242188 9.777344 37.628906 C 9.851562 37.972656 10.335938 38.089844 10.484375 37.726562 C 11.351562 35.625 11.496094 33.472656 12.683594 31.4375 C 13.628906 29.824219 15.238281 28.941406 16.453125 27.695312 C 17.371094 27.722656 18.296875 27.707031 19.214844 27.675781 C 16.34375 29.917969 14.339844 34.140625 14.710938 37.417969 C 14.765625 37.890625 15.359375 38 15.535156 37.535156 C 16.339844 35.421875 16.820312 33.308594 18 31.335938 C 18.875 29.878906 20.125 28.804688 21.28125 27.617188 C 21.609375 27.609375 21.941406 27.605469 22.265625 27.605469 C 22.875 27.605469 23.484375 27.597656 24.09375 27.59375 C 20.851562 29.996094 17.855469 35.019531 18.574219 38.417969 C 18.617188 38.613281 18.898438 38.757812 19.039062 38.546875 C 20.277344 36.648438 20.675781 34.257812 21.832031 32.265625 C 22.921875 30.394531 24.527344 29.101562 25.960938 27.578125 C 26.882812 27.566406 27.800781 27.550781 28.722656 27.535156 C 25.109375 29.941406 22.101562 35.054688 22.554688 38.941406 C 22.585938 39.207031 23.003906 39.257812 23.121094 39.027344 C 24.226562 36.851562 24.738281 34.472656 26.042969 32.351562 C 27.28125 30.335938 29.074219 29.019531 30.769531 27.496094 C 31.507812 27.480469 32.25 27.46875 32.988281 27.457031 C 28.972656 30.164062 25.332031 35.984375 26.34375 40.210938 C 26.386719 40.402344 26.660156 40.425781 26.75 40.257812 C 27.96875 38.007812 28.28125 35.363281 29.5625 33.066406 C 30.9375 30.601562 32.972656 29.042969 35.125 27.417969 C 36.117188 27.402344 37.105469 27.394531 38.097656 27.378906 C 32.859375 29.425781 31.054688 37.726562 30.71875 42.570312 C 30.4375 46.609375 31.222656 52.835938 34.050781 56.570312 C 30.125 56.675781 26.195312 56.765625 22.269531 56.859375 Z M 65.121094 52.644531 C 63.445312 54.195312 60.964844 54.550781 59.050781 55.523438 C 51.707031 55.902344 44.371094 56.261719 37.019531 56.484375 C 36.179688 54.816406 35.089844 53.296875 34.421875 51.496094 C 33.394531 48.726562 33.140625 45.671875 33.214844 42.75 C 33.28125 40.054688 33.949219 37.433594 34.9375 34.941406 C 36.03125 32.183594 38.226562 30.269531 39.515625 27.683594 C 39.566406 27.578125 39.5625 27.46875 39.539062 27.363281 C 40.414062 27.355469 41.289062 27.355469 42.164062 27.347656 C 39.328125 29.980469 36.546875 34.4375 37.414062 37.839844 C 37.476562 38.085938 37.800781 38.019531 37.898438 37.847656 C 39.011719 35.839844 39.265625 33.398438 40.386719 31.320312 C 41.195312 29.820312 42.308594 28.582031 43.4375 27.339844 C 43.9375 27.339844 44.433594 27.34375 44.929688 27.34375 C 42.976562 29.566406 41.585938 32.964844 41.574219 35.625 C 41.570312 35.9375 41.945312 36.035156 42.09375 35.757812 C 42.816406 34.40625 43.3125 32.917969 43.90625 31.507812 C 44.523438 30.050781 45.402344 28.738281 46.132812 27.347656 C 46.949219 27.351562 47.761719 27.359375 48.578125 27.367188 C 46.683594 29.273438 45.238281 32.109375 45.394531 34.527344 C 45.410156 34.808594 45.816406 34.996094 45.96875 34.695312 C 46.785156 33.109375 47.199219 31.390625 48.09375 29.832031 C 48.605469 28.941406 49.242188 28.15625 49.886719 27.378906 C 50.71875 27.390625 51.550781 27.414062 52.382812 27.433594 C 51.816406 28.226562 51.367188 29.125 50.957031 29.972656 C 50.296875 31.339844 49.652344 32.847656 49.878906 34.382812 C 49.925781 34.714844 50.308594 34.816406 50.5 34.53125 C 51.386719 33.210938 51.675781 31.578125 52.300781 30.125 C 52.695312 29.214844 53.230469 28.355469 53.664062 27.460938 C 54.445312 27.480469 55.226562 27.507812 56.007812 27.535156 C 55.394531 28.277344 54.890625 29.074219 54.449219 30 C 53.84375 31.277344 53.132812 32.894531 53.5 34.316406 C 53.597656 34.695312 54.058594 34.71875 54.269531 34.429688 C 54.984375 33.445312 55.164062 32.121094 55.566406 30.988281 C 55.972656 29.828125 56.488281 28.695312 56.992188 27.566406 C 57.785156 27.597656 58.574219 27.636719 59.367188 27.675781 C 58.582031 28.386719 58.105469 29.21875 57.667969 30.195312 C 57.1875 31.273438 56.507812 32.667969 56.875 33.847656 C 56.96875 34.148438 57.359375 34.273438 57.59375 34.035156 C 58.34375 33.269531 58.503906 32.070312 58.855469 31.082031 C 59.238281 29.996094 59.738281 28.992188 60.011719 27.875 C 60.027344 27.808594 60.015625 27.757812 59.996094 27.703125 C 60.054688 27.707031 60.109375 27.710938 60.167969 27.710938 C 60.175781 27.714844 60.179688 27.710938 60.1875 27.710938 C 60.636719 28.101562 61.199219 28.316406 61.84375 28.542969 C 63.976562 29.300781 65.734375 30.316406 67.25 32.015625 C 69.425781 34.464844 70.144531 37.914062 70.144531 41.085938 C 70.152344 45.359375 68.242188 49.753906 65.121094 52.644531 Z M 65.121094 52.644531 " fill-opacity="1" fill-rule="nonzero"/><g clip-path="url(#clip-19)"><path fill="rgb(100%, 100%, 100%)" d="M 128.605469 21.285156 C 128.824219 20.992188 128.808594 20.507812 128.472656 20.246094 C 125.582031 17.984375 121.777344 16.867188 118.425781 15.414062 C 114.4375 13.683594 110.449219 11.941406 106.460938 10.203125 C 99.582031 7.203125 92.390625 3.011719 85.023438 1.429688 C 84.480469 1.3125 84.15625 1.796875 84.164062 2.265625 C 77.882812 -0.0625 70.722656 4.699219 67.765625 10.1875 C 64.113281 16.960938 66.25 25.570312 71.007812 31.160156 C 71.378906 31.597656 71.871094 31.738281 72.332031 31.679688 C 74.972656 33.75 78.261719 35.0625 81.222656 36.585938 C 85.597656 38.835938 89.964844 41.101562 94.378906 43.273438 C 98.234375 45.164062 102.148438 46.921875 106.144531 48.488281 C 108.460938 49.398438 111.667969 51.097656 114.320312 50.789062 C 117.105469 52.550781 121.84375 51.261719 124.5625 50.054688 C 127.929688 48.5625 130.257812 45.304688 131.640625 42.019531 C 134.101562 36.167969 133.671875 26.074219 128.605469 21.285156 Z M 94.363281 40.503906 C 90.789062 38.765625 87.257812 36.957031 83.691406 35.210938 C 80.535156 33.664062 77.101562 31.628906 73.5625 30.84375 C 73.726562 30.476562 73.707031 30.039062 73.355469 29.601562 C 72.59375 28.65625 71.921875 27.667969 71.34375 26.644531 C 71.800781 26.835938 72.269531 26.953125 72.75 26.949219 C 73.101562 26.949219 73.355469 26.421875 73.039062 26.191406 C 72.363281 25.703125 71.542969 25.425781 70.820312 25.011719 C 70.679688 24.929688 70.539062 24.839844 70.402344 24.75 C 69.878906 23.539062 69.476562 22.296875 69.234375 21.027344 C 70.023438 21.738281 70.996094 22.183594 72.105469 22.136719 C 72.46875 22.121094 72.695312 21.628906 72.394531 21.378906 C 71.441406 20.589844 70.3125 20.132812 69.464844 19.195312 C 69.277344 18.992188 69.109375 18.769531 68.953125 18.539062 C 68.914062 17.523438 68.972656 16.5 69.140625 15.476562 C 69.390625 16.40625 69.839844 17.257812 70.503906 17.917969 C 70.75 18.164062 71.257812 18.042969 71.179688 17.628906 C 70.914062 16.246094 70.402344 14.949219 70.289062 13.535156 C 70.234375 12.859375 70.273438 12.175781 70.34375 11.496094 C 70.378906 11.417969 70.40625 11.34375 70.441406 11.269531 C 71.441406 9.132812 72.792969 7.734375 74.367188 6.777344 C 72.929688 8.894531 72.214844 11.617188 73.515625 13.96875 C 73.675781 14.25 74.210938 14.296875 74.226562 13.878906 C 74.265625 12.976562 74.179688 12.078125 74.179688 11.171875 C 74.175781 9.363281 74.816406 7.574219 75.773438 6.050781 C 76.855469 5.585938 78.015625 5.261719 79.222656 5.015625 C 77.320312 6.707031 75.664062 9.148438 75.746094 11.308594 C 75.761719 11.660156 76.207031 11.707031 76.40625 11.492188 C 77.261719 10.554688 77.675781 9.257812 78.335938 8.179688 C 79.140625 6.867188 80.222656 5.761719 81.289062 4.648438 C 82.863281 4.402344 84.480469 4.203125 86.070312 3.894531 C 86.109375 3.917969 86.148438 3.9375 86.183594 3.960938 C 83.347656 4.78125 80.417969 6.839844 79.433594 9.050781 C 79.257812 9.453125 79.789062 9.679688 80.078125 9.480469 C 81.382812 8.570312 82.382812 7.316406 83.734375 6.425781 C 85.011719 5.582031 86.332031 5.207031 87.671875 4.796875 C 88.144531 5.058594 88.636719 5.300781 89.125 5.550781 C 86.59375 6.464844 84.171875 8.273438 83.589844 10.417969 C 83.542969 10.589844 83.757812 10.777344 83.921875 10.695312 C 85.34375 10.003906 86.378906 8.6875 87.695312 7.808594 C 88.675781 7.148438 89.75 6.742188 90.851562 6.40625 C 91.796875 6.855469 92.757812 7.28125 93.726562 7.695312 C 93.082031 7.96875 92.457031 8.3125 91.855469 8.722656 C 90.605469 9.582031 88.8125 11.085938 88.828125 12.707031 C 88.828125 12.957031 89.089844 13.09375 89.304688 12.988281 C 90.601562 12.328125 91.398438 10.734375 92.570312 9.828125 C 93.371094 9.207031 94.277344 8.734375 95.214844 8.328125 C 96.144531 8.714844 97.082031 9.09375 98.019531 9.464844 C 95.304688 10.367188 92.261719 12.375 91.804688 14.929688 C 91.738281 15.3125 92.21875 15.429688 92.464844 15.257812 C 93.839844 14.300781 94.734375 12.78125 96.132812 11.78125 C 97.160156 11.046875 98.335938 10.539062 99.503906 10.050781 C 100.289062 10.359375 101.058594 10.664062 101.835938 10.972656 C 98.558594 12.039062 95.15625 14.253906 94.5625 17.320312 C 94.492188 17.679688 94.925781 17.820312 95.171875 17.660156 C 96.824219 16.625 97.984375 14.863281 99.605469 13.710938 C 100.832031 12.839844 102.199219 12.21875 103.597656 11.671875 C 104.734375 12.128906 105.859375 12.589844 106.953125 13.0625 C 107.160156 13.152344 107.367188 13.242188 107.574219 13.332031 C 102.394531 13.777344 97.792969 20.675781 95.894531 24.585938 C 93.871094 28.753906 92.171875 35.855469 94.363281 40.503906 Z M 129.671875 38.867188 C 128.960938 42.105469 127.085938 44.996094 124.398438 46.917969 C 123.015625 47.910156 121.382812 48.425781 119.726562 48.726562 C 117.980469 49.039062 116.320312 48.476562 114.675781 48.824219 C 112.523438 47.359375 109.21875 46.945312 106.878906 46.0625 C 103.546875 44.804688 100.300781 43.339844 97.082031 41.8125 C 97.105469 41.714844 97.121094 41.605469 97.109375 41.484375 C 96.917969 39.109375 96.160156 36.902344 96.132812 34.480469 C 96.089844 31.160156 97.21875 27.789062 98.636719 24.839844 C 99.699219 22.628906 101.15625 20.667969 102.832031 18.882812 C 104.660156 16.929688 107.273438 15.894531 109.03125 13.957031 C 109.90625 14.335938 110.78125 14.710938 111.660156 15.089844 C 110.65625 15.695312 109.671875 16.574219 109.109375 17.03125 C 107.46875 18.351562 105.832031 19.773438 105.019531 21.753906 C 104.910156 22.019531 105.21875 22.191406 105.417969 22.015625 C 106.820312 20.777344 108.039062 19.363281 109.457031 18.140625 C 110.515625 17.226562 111.679688 16.441406 112.886719 15.738281 C 112.929688 15.710938 112.964844 15.691406 113.003906 15.667969 C 113.875 16.042969 114.746094 16.417969 115.617188 16.792969 C 112.75 18.097656 110.035156 20.707031 109.457031 23.535156 C 109.398438 23.804688 109.707031 24.066406 109.945312 23.84375 C 110.851562 22.996094 111.519531 22.050781 112.3125 21.097656 C 113.605469 19.546875 115.253906 18.425781 116.941406 17.363281 C 117.558594 17.632812 118.179688 17.898438 118.800781 18.164062 C 119.085938 18.289062 119.371094 18.417969 119.660156 18.546875 C 117.25 19.699219 114.761719 22.292969 114.042969 24.613281 C 113.9375 24.949219 114.371094 25.347656 114.65625 25.046875 C 115.4375 24.222656 116.074219 23.269531 116.8125 22.40625 C 117.953125 21.070312 119.378906 20.113281 120.757812 19.035156 C 121.558594 19.402344 122.367188 19.765625 123.183594 20.105469 C 122.308594 20.703125 121.496094 21.371094 120.707031 22.097656 C 119.742188 22.984375 118.464844 24.148438 118.234375 25.492188 C 118.195312 25.734375 118.46875 26.011719 118.714844 25.882812 C 119.777344 25.34375 120.496094 24.175781 121.269531 23.292969 C 122.148438 22.285156 123.136719 21.378906 124.128906 20.480469 C 124.601562 20.660156 125.070312 20.828125 125.546875 20.972656 C 125.558594 21.082031 125.585938 21.191406 125.632812 21.296875 C 125.761719 21.582031 125.898438 21.855469 126.035156 22.125 C 125.070312 22.546875 124.300781 23.296875 123.597656 24.074219 C 122.894531 24.855469 121.484375 26.203125 121.632812 27.332031 C 121.660156 27.550781 121.851562 27.695312 122.074219 27.636719 C 122.984375 27.390625 123.613281 26.175781 124.1875 25.472656 C 124.90625 24.597656 125.746094 23.804688 126.433594 22.898438 C 126.808594 23.597656 127.195312 24.273438 127.574219 24.949219 C 126.640625 25.75 125.628906 26.585938 125.109375 27.707031 C 124.882812 28.195312 125.554688 28.828125 125.984375 28.40625 C 126.75 27.652344 127.445312 26.824219 128.140625 26.003906 C 128.488281 26.660156 128.808594 27.332031 129.089844 28.039062 C 128.933594 27.839844 128.628906 27.746094 128.394531 27.976562 C 127.875 28.492188 127.183594 29.089844 126.960938 29.804688 C 126.886719 30.039062 127.144531 30.277344 127.371094 30.199219 C 128.113281 29.9375 128.542969 29.128906 129.0625 28.578125 C 129.152344 28.484375 129.179688 28.386719 129.179688 28.289062 C 129.398438 28.867188 129.59375 29.464844 129.738281 30.105469 C 130.394531 33.011719 130.308594 35.96875 129.671875 38.867188 Z M 129.671875 38.867188 " fill-opacity="1" fill-rule="nonzero"/></g><path fill="rgb(100%, 100%, 100%)" d="M 61.109375 30.46875 C 60.878906 30.992188 60.660156 31.523438 60.445312 32.050781 C 60.265625 32.484375 60.03125 32.945312 60.234375 33.398438 C 60.308594 33.5625 60.503906 33.582031 60.652344 33.527344 C 61.078125 33.355469 61.210938 32.8125 61.339844 32.414062 C 61.511719 31.871094 61.6875 31.332031 61.875 30.796875 C 62.035156 30.355469 61.304688 30.035156 61.109375 30.46875 Z M 61.109375 30.46875 " fill-opacity="1" fill-rule="nonzero"/></g></g></g></svg>